<svg width="680" height="680" viewBox="0 0 680 680" role="img" xmlns="http://www.w3.org/2000/svg">
  <title>STA Logo</title>
  <desc>Sharp geometric STA monogram logo on dark background for a developer or AI engineer</desc>

  <defs>
    <clipPath id="hexclip">
      <polygon points="340,55 595,198 595,482 340,625 85,482 85,198"/>
    </clipPath>
  </defs>

  <polygon points="340,55 595,198 595,482 340,625 85,482 85,198" fill="#070b12"/>

  <g clip-path="url(#hexclip)" stroke="#0d1a28" stroke-width="1" fill="none">
    <line x1="85" y1="198" x2="595" y2="198"/>
    <line x1="85" y1="248" x2="595" y2="248"/>
    <line x1="85" y1="298" x2="595" y2="298"/>
    <line x1="85" y1="348" x2="595" y2="348"/>
    <line x1="85" y1="398" x2="595" y2="398"/>
    <line x1="85" y1="448" x2="595" y2="448"/>
    <line x1="85" y1="498" x2="595" y2="498"/>
    <line x1="155" y1="55" x2="155" y2="625"/>
    <line x1="220" y1="55" x2="220" y2="625"/>
    <line x1="285" y1="55" x2="285" y2="625"/>
    <line x1="340" y1="55" x2="340" y2="625"/>
    <line x1="395" y1="55" x2="395" y2="625"/>
    <line x1="460" y1="55" x2="460" y2="625"/>
    <line x1="525" y1="55" x2="525" y2="625"/>
  </g>

  <polygon points="340,55 595,198 595,482 340,625 85,482 85,198"
           fill="none" stroke="#1c3d6b" stroke-width="2"/>
  <polygon points="340,70 578,206 578,474 340,610 102,474 102,206"
           fill="none" stroke="#102038" stroke-width="1"/>

  <g fill="none" stroke="#00b4d8" stroke-width="2.5" stroke-linecap="square">
    <polyline points="322,55 340,55 358,55"/>
    <polyline points="587,190 595,198 595,210"/>
    <polyline points="595,470 595,482 585,488"/>
    <polyline points="358,625 340,625 322,625"/>
    <polyline points="95,488 85,482 85,470"/>
    <polyline points="85,210 85,198 95,190"/>
  </g>

  <!-- S -->
  <rect x="192" y="218" width="96" height="18" fill="#e2ecff"/>
  <rect x="270" y="218" width="18" height="54" fill="#e2ecff"/>
  <rect x="192" y="254" width="96" height="18" fill="#e2ecff"/>
  <rect x="192" y="272" width="18" height="54" fill="#e2ecff"/>
  <rect x="192" y="308" width="96" height="18" fill="#e2ecff"/>
  <rect x="270" y="258" width="18" height="10" fill="#00b4d8"/>

  <!-- T -->
  <rect x="318" y="218" width="104" height="18" fill="#e2ecff"/>
  <rect x="361" y="236" width="18" height="90" fill="#e2ecff"/>

  <!-- A -->
  <polygon points="440,326 458,218 474,218 462,326" fill="#e2ecff"/>
  <polygon points="476,218 492,218 510,326 492,326" fill="#e2ecff"/>
  <rect x="450" y="283" width="44" height="16" fill="#e2ecff"/>

  <!-- Underlines -->
  <rect x="192" y="332" width="96" height="4" fill="#1c6ea4"/>
  <rect x="318" y="332" width="104" height="4" fill="#1c6ea4"/>
  <rect x="440" y="332" width="70" height="4" fill="#00b4d8"/>

  <line x1="160" y1="368" x2="520" y2="368" stroke="#112238" stroke-width="1"/>

  <rect x="220" y="382" width="12" height="22" fill="#00b4d8"/>
  <rect x="242" y="388" width="40" height="4" fill="#1c3d6b"/>
  <rect x="290" y="388" width="20" height="4" fill="#1c3d6b"/>
  <rect x="318" y="388" width="55" height="4" fill="#1c3d6b"/>
  <rect x="381" y="388" width="28" height="4" fill="#00b4d8"/>
  <rect x="417" y="388" width="18" height="4" fill="#1c3d6b"/>
  <rect x="443" y="388" width="35" height="4" fill="#1c3d6b"/>
  <rect x="242" y="398" width="55" height="4" fill="#1c3d6b"/>
  <rect x="305" y="398" width="30" height="4" fill="#1c6ea4"/>
  <rect x="343" y="398" width="45" height="4" fill="#1c3d6b"/>
  <rect x="396" y="398" width="20" height="4" fill="#1c3d6b"/>

  <line x1="160" y1="422" x2="520" y2="422" stroke="#0d1f30" stroke-width="1"/>

  <rect x="278" y="436" width="124" height="26" rx="2" fill="#0d1f30"/>
  <rect x="278" y="436" width="4" height="26" fill="#00b4d8"/>
  <text x="394" y="454" fill="#4a8ab5"
        font-family="'Courier New', Courier, monospace"
        font-size="12" font-weight="700"
        letter-spacing="3" text-anchor="end">DEVELOPER</text>

  <circle cx="160" cy="368" r="3" fill="#1c3d6b"/>
  <circle cx="520" cy="368" r="3" fill="#1c3d6b"/>
  <circle cx="160" cy="422" r="3" fill="#00b4d8"/>
  <circle cx="520" cy="422" r="3" fill="#1c3d6b"/>

</svg>
